<svg width="82" height="80" viewBox="0 0 82 80" fill="none" xmlns="http://www.w3.org/2000/svg">
<path d="M71.6146 0H10.1885C4.56153 0 0 4.56153 0 10.1885V68.9026C0 74.5295 4.56153 79.0911 10.1885 79.0911H71.6146C77.2416 79.0911 81.8031 74.5295 81.8031 68.9026V10.1885C81.8031 4.56153 77.2416 0 71.6146 0Z" fill="#00BFC0"/>
<path d="M61.2206 24.212C59.2418 27.4967 52.6032 27.8645 52.6032 27.8645H29.5794C29.5794 27.8645 22.9502 27.4725 20.9615 24.1924L19.1064 25.5064C19.3336 27.9749 20.4957 30.2667 22.3591 31.9204C24.2224 33.5741 26.6486 34.467 29.1495 34.4195L36.2988 34.6862L38.4361 55.3945H43.7394L45.8517 34.6806L53.0011 34.4139C55.502 34.4614 57.9282 33.5685 59.7915 31.9148C61.6549 30.2611 62.817 27.9694 63.0442 25.5008L61.2206 24.212Z" fill="white"/>
</svg>
